<svg data-v-423bf9ae="" xmlns="http://www.w3.org/2000/svg" viewBox="0 0 624 90" class="iconLeft"><!----><!----><!----><g data-v-423bf9ae="" id="b01c8ca4-91b5-475b-90c7-eb6d4c005860" fill="#120E32" transform="matrix(5.665722297967836,0,0,5.665722297967836,126.08617847951035,-7.832862526363378)"><path d="M4.07 4.23L4.07 4.23L4.07 5.21L4.07 5.21Q3.70 5.19 3.36 5.19L3.36 5.19L3.36 5.19Q2.93 5.19 2.84 5.23L2.84 5.23L2.84 5.23Q2.69 5.30 2.67 5.69L2.67 5.69L2.67 5.69Q2.67 5.83 2.67 6.08L2.67 6.08L2.67 6.08Q2.67 6.18 2.67 6.49L2.67 6.49L2.67 6.49Q2.67 6.80 2.67 7.02L2.67 7.02L4.03 7.02L4.03 7.79L2.67 7.79L2.67 14.52L1.33 14.52L1.33 7.79L0.44 7.79L0.44 7.02L1.33 7.02L1.33 7.02Q1.33 6.64 1.33 6.41L1.33 6.41L1.33 6.41Q1.33 6.17 1.35 5.89L1.35 5.89L1.35 5.89Q1.36 5.60 1.38 5.43L1.38 5.43L1.38 5.43Q1.40 5.26 1.45 5.06L1.45 5.06L1.45 5.06Q1.49 4.86 1.55 4.75L1.55 4.75L1.55 4.75Q1.61 4.63 1.70 4.51L1.70 4.51L1.70 4.51Q1.78 4.39 1.90 4.33L1.90 4.33L1.90 4.33Q2.01 4.27 2.16 4.21L2.16 4.21L2.16 4.21Q2.31 4.16 2.49 4.14L2.49 4.14L2.49 4.14Q2.67 4.12 2.91 4.12L2.91 4.12L2.91 4.12Q3.46 4.12 4.07 4.23ZM8.86 6.85L8.86 6.85L8.80 7.99L8.80 7.99Q8.54 7.96 8.31 7.96L8.31 7.96L8.31 7.96Q7.83 7.96 7.53 8.05L7.53 8.05L7.53 8.05Q7.23 8.15 7.07 8.38L7.07 8.38L7.07 8.38Q6.92 8.61 6.87 8.91L6.87 8.91L6.87 8.91Q6.82 9.21 6.82 9.71L6.82 9.71L6.82 9.71Q6.82 9.99 6.84 10.53L6.84 10.53L6.84 10.53Q6.86 11.07 6.86 11.30L6.86 11.30L6.86 14.52L5.52 14.52L5.52 7.02L6.74 7.02L6.88 7.86L6.88 7.86Q7.09 7.37 7.52 7.10L7.52 7.10L7.52 7.10Q7.95 6.83 8.55 6.83L8.55 6.83L8.55 6.83Q8.70 6.83 8.86 6.85ZM13.25 13.68L13.25 13.68L13.25 13.68Q14.23 13.66 14.60 13.54L14.60 13.54L14.60 13.54Q14.98 13.41 14.98 13.05L14.98 13.05L14.98 13.05Q15.06 12.07 15.06 10.79L15.06 10.79L15.06 10.79Q15.06 10.36 15.03 9.57L15.03 9.57L15.03 9.57Q14.99 8.78 14.99 8.40L14.99 8.40L14.99 8.40Q14.99 8.29 14.95 8.19L14.95 8.19L14.95 8.19Q14.92 8.09 14.83 8.03L14.83 8.03L14.83 8.03Q14.75 7.96 14.66 7.92L14.66 7.92L14.66 7.92Q14.57 7.87 14.42 7.84L14.42 7.84L14.42 7.84Q14.27 7.81 14.16 7.79L14.16 7.79L14.16 7.79Q14.05 7.77 13.86 7.77L13.86 7.77L13.86 7.77Q13.67 7.76 13.56 7.76L13.56 7.76L13.56 7.76Q13.45 7.76 13.25 7.76L13.25 7.76L13.25 7.76Q13.04 7.76 12.94 7.76L12.94 7.76L12.94 7.76Q12.83 7.76 12.64 7.77L12.64 7.77L12.64 7.77Q12.44 7.77 12.34 7.79L12.34 7.79L12.34 7.79Q12.23 7.81 12.08 7.84L12.08 7.84L12.08 7.84Q11.92 7.87 11.84 7.92L11.84 7.92L11.84 7.92Q11.75 7.96 11.67 8.03L11.67 8.03L11.67 8.03Q11.58 8.09 11.54 8.19L11.54 8.19L11.54 8.19Q11.50 8.29 11.50 8.40L11.50 8.40L11.50 8.40Q11.50 8.78 11.47 9.57L11.47 9.57L11.47 9.57Q11.44 10.36 11.44 10.79L11.44 10.79L11.44 10.79Q11.44 12.07 11.51 13.05L11.51 13.05L11.51 13.05Q11.51 13.41 11.91 13.55L11.91 13.55L11.91 13.55Q12.31 13.68 13.25 13.68ZM13.24 14.62L13.24 14.62L13.24 14.62Q12.48 14.62 11.98 14.56L11.98 14.56L11.98 14.56Q11.47 14.50 11.10 14.29L11.10 14.29L11.10 14.29Q10.74 14.08 10.55 13.85L10.55 13.85L10.55 13.85Q10.36 13.61 10.25 13.10L10.25 13.10L10.25 13.10Q10.14 12.59 10.11 12.09L10.11 12.09L10.11 12.09Q10.09 11.59 10.09 10.71L10.09 10.71L10.09 10.71Q10.09 10.04 10.11 9.60L10.11 9.60L10.11 9.60Q10.12 9.15 10.19 8.73L10.19 8.73L10.19 8.73Q10.25 8.30 10.34 8.04L10.34 8.04L10.34 8.04Q10.43 7.77 10.61 7.54L10.61 7.54L10.61 7.54Q10.78 7.30 11.00 7.18L11.00 7.18L11.00 7.18Q11.22 7.05 11.56 6.96L11.56 6.96L11.56 6.96Q11.89 6.87 12.29 6.84L12.29 6.84L12.29 6.84Q12.69 6.81 13.25 6.81L13.25 6.81L13.25 6.81Q13.80 6.81 14.20 6.84L14.20 6.84L14.20 6.84Q14.60 6.87 14.94 6.96L14.94 6.96L14.94 6.96Q15.28 7.05 15.50 7.18L15.50 7.18L15.50 7.18Q15.72 7.30 15.89 7.54L15.89 7.54L15.89 7.54Q16.06 7.77 16.16 8.04L16.16 8.04L16.16 8.04Q16.25 8.30 16.31 8.73L16.31 8.73L16.31 8.73Q16.37 9.15 16.39 9.60L16.39 9.60L16.39 9.60Q16.41 10.04 16.41 10.71L16.41 10.71L16.41 10.71Q16.41 11.59 16.38 12.09L16.38 12.09L16.38 12.09Q16.36 12.59 16.25 13.10L16.25 13.10L16.25 13.10Q16.14 13.61 15.94 13.85L15.94 13.85L15.94 13.85Q15.75 14.09 15.38 14.29L15.38 14.29L15.38 14.29Q15.02 14.50 14.51 14.56L14.51 14.56L14.51 14.56Q14.01 14.62 13.24 14.62ZM24.23 10.36L24.23 14.52L22.89 14.52L22.89 9.98L22.89 9.98Q22.89 9.54 22.88 9.28L22.88 9.28L22.88 9.28Q22.88 9.02 22.86 8.75L22.86 8.75L22.86 8.75Q22.83 8.48 22.80 8.35L22.80 8.35L22.80 8.35Q22.78 8.22 22.71 8.08L22.71 8.08L22.71 8.08Q22.63 7.95 22.56 7.90L22.56 7.90L22.56 7.90Q22.48 7.85 22.34 7.81L22.34 7.81L22.34 7.81Q22.20 7.77 22.05 7.76L22.05 7.76L22.05 7.76Q21.91 7.75 21.67 7.75L21.67 7.75L21.67 7.75Q21.15 7.75 20.78 7.81L20.78 7.81L20.78 7.81Q20.42 7.87 20.19 7.97L20.19 7.97L20.19 7.97Q19.95 8.07 19.83 8.26L19.83 8.26L19.83 8.26Q19.70 8.44 19.65 8.66L19.65 8.66L19.65 8.66Q19.61 8.87 19.61 9.19L19.61 9.19L19.61 9.19Q19.61 9.37 19.63 9.81L19.63 9.81L19.63 9.81Q19.65 10.25 19.65 10.52L19.65 10.52L19.65 14.52L18.30 14.52L18.30 7.02L19.53 7.02L19.66 7.86L19.66 7.86Q19.84 7.30 20.45 7.05L20.45 7.05L20.45 7.05Q21.05 6.81 21.90 6.81L21.90 6.81L21.90 6.81Q22.29 6.81 22.60 6.86L22.60 6.86L22.60 6.86Q22.91 6.90 23.15 7.02L23.15 7.02L23.15 7.02Q23.39 7.13 23.56 7.27L23.56 7.27L23.56 7.27Q23.73 7.42 23.85 7.65L23.85 7.65L23.85 7.65Q23.97 7.89 24.05 8.13L24.05 8.13L24.05 8.13Q24.12 8.38 24.17 8.75L24.17 8.75L24.17 8.75Q24.21 9.12 24.22 9.48L24.22 9.48L24.22 9.48Q24.23 9.85 24.23 10.36L24.23 10.36ZM29.27 13.57L29.27 13.57L29.24 14.53L29.24 14.53Q28.67 14.62 28.21 14.62L28.21 14.62L28.21 14.62Q27.71 14.62 27.38 14.51L27.38 14.51L27.38 14.51Q27.06 14.40 26.89 14.16L26.89 14.16L26.89 14.16Q26.73 13.92 26.67 13.63L26.67 13.63L26.67 13.63Q26.61 13.34 26.61 12.89L26.61 12.89L26.61 7.79L25.59 7.79L25.59 7.02L26.61 7.02L26.61 4.89L27.95 4.78L27.95 7.02L29.33 7.02L29.33 7.79L27.95 7.79L27.95 12.43L27.95 12.43Q27.95 13.17 28.02 13.39L28.02 13.39L28.02 13.39Q28.09 13.61 28.41 13.61L28.41 13.61L28.41 13.61Q28.72 13.61 29.27 13.57ZM36.91 10.66L36.91 10.66L36.91 10.66Q36.09 10.75 35.89 10.76L35.89 10.76L32.16 10.76L32.16 10.76Q32.17 11.75 32.22 12.93L32.22 12.93L32.22 12.93Q32.25 13.39 32.61 13.54L32.61 13.54L32.61 13.54Q32.97 13.69 34.01 13.69L34.01 13.69L34.01 13.69Q34.40 13.69 34.68 13.65L34.68 13.65L34.68 13.65Q34.96 13.62 35.13 13.55L35.13 13.55L35.13 13.55Q35.31 13.47 35.41 13.40L35.41 13.40L35.41 13.40Q35.51 13.32 35.55 13.17L35.55 13.17L35.55 13.17Q35.60 13.02 35.62 12.91L35.62 12.91L35.62 12.91Q35.63 12.80 35.64 12.59L35.64 12.59L35.64 12.59Q35.66 12.37 35.68 12.24L35.68 12.24L36.72 12.43L36.72 12.43Q36.71 12.91 36.65 13.24L36.65 13.24L36.65 13.24Q36.60 13.57 36.47 13.82L36.47 13.82L36.47 13.82Q36.34 14.08 36.16 14.22L36.16 14.22L36.16 14.22Q35.98 14.37 35.68 14.46L35.68 14.46L35.68 14.46Q35.38 14.56 35.02 14.59L35.02 14.59L35.02 14.59Q34.66 14.62 34.13 14.62L34.13 14.62L34.13 14.62Q33.44 14.62 32.94 14.54L32.94 14.54L32.94 14.54Q32.43 14.46 32.07 14.35L32.07 14.35L32.07 14.35Q31.71 14.23 31.48 13.97L31.48 13.97L31.48 13.97Q31.25 13.71 31.11 13.47L31.11 13.47L31.11 13.47Q30.98 13.23 30.92 12.76L30.92 12.76L30.92 12.76Q30.86 12.30 30.84 11.92L30.84 11.92L30.84 11.92Q30.82 11.54 30.82 10.87L30.82 10.87L30.82 10.87Q30.82 9.93 30.85 9.40L30.85 9.40L30.85 9.40Q30.87 8.87 30.98 8.34L30.98 8.34L30.98 8.34Q31.09 7.81 31.27 7.57L31.27 7.57L31.27 7.57Q31.46 7.33 31.82 7.13L31.82 7.13L31.82 7.13Q32.18 6.92 32.68 6.87L32.68 6.87L32.68 6.87Q33.17 6.81 33.93 6.81L33.93 6.81L33.93 6.81Q34.45 6.81 34.84 6.84L34.84 6.84L34.84 6.84Q35.22 6.87 35.54 6.97L35.54 6.97L35.54 6.97Q35.86 7.06 36.07 7.18L36.07 7.18L36.07 7.18Q36.28 7.31 36.44 7.55L36.44 7.55L36.44 7.55Q36.60 7.79 36.69 8.04L36.69 8.04L36.69 8.04Q36.77 8.30 36.83 8.72L36.83 8.72L36.83 8.72Q36.88 9.15 36.89 9.58L36.89 9.58L36.89 9.58Q36.91 10.01 36.91 10.66ZM32.17 10.04L32.17 10.04L35.56 10.04L35.56 10.04Q35.55 9.17 35.49 8.44L35.49 8.44L35.49 8.44Q35.46 8.03 35.13 7.89L35.13 7.89L35.13 7.89Q34.80 7.75 33.92 7.75L33.92 7.75L33.92 7.75Q32.94 7.75 32.68 7.85L32.68 7.85L32.68 7.85Q32.57 7.89 32.48 7.97L32.48 7.97L32.48 7.97Q32.40 8.06 32.34 8.22L32.34 8.22L32.34 8.22Q32.29 8.37 32.26 8.51L32.26 8.51L32.26 8.51Q32.22 8.65 32.21 8.89L32.21 8.89L32.21 8.89Q32.19 9.13 32.18 9.27L32.18 9.27L32.18 9.27Q32.18 9.40 32.17 9.67L32.17 9.67L32.17 9.67Q32.17 9.95 32.17 10.04ZM44.66 10.36L44.66 14.52L43.31 14.52L43.31 9.98L43.31 9.98Q43.31 9.54 43.31 9.28L43.31 9.28L43.31 9.28Q43.31 9.02 43.28 8.75L43.28 8.75L43.28 8.75Q43.26 8.48 43.23 8.35L43.23 8.35L43.23 8.35Q43.20 8.22 43.13 8.08L43.13 8.08L43.13 8.08Q43.06 7.95 42.98 7.90L42.98 7.90L42.98 7.90Q42.91 7.85 42.77 7.81L42.77 7.81L42.77 7.81Q42.62 7.77 42.48 7.76L42.48 7.76L42.48 7.76Q42.33 7.75 42.10 7.75L42.10 7.75L42.10 7.75Q41.58 7.75 41.21 7.81L41.21 7.81L41.21 7.81Q40.84 7.87 40.61 7.97L40.61 7.97L40.61 7.97Q40.38 8.07 40.25 8.26L40.25 8.26L40.25 8.26Q40.13 8.44 40.08 8.66L40.08 8.66L40.08 8.66Q40.03 8.87 40.03 9.19L40.03 9.19L40.03 9.19Q40.03 9.37 40.05 9.81L40.05 9.81L40.05 9.81Q40.07 10.25 40.07 10.52L40.07 10.52L40.07 14.52L38.73 14.52L38.73 7.02L39.96 7.02L40.09 7.86L40.09 7.86Q40.26 7.30 40.87 7.05L40.87 7.05L40.87 7.05Q41.48 6.81 42.32 6.81L42.32 6.81L42.32 6.81Q42.72 6.81 43.03 6.86L43.03 6.86L43.03 6.86Q43.33 6.90 43.57 7.02L43.57 7.02L43.57 7.02Q43.81 7.13 43.99 7.27L43.99 7.27L43.99 7.27Q44.16 7.42 44.28 7.65L44.28 7.65L44.28 7.65Q44.40 7.89 44.47 8.13L44.47 8.13L44.47 8.13Q44.55 8.38 44.59 8.75L44.59 8.75L44.59 8.75Q44.63 9.12 44.65 9.48L44.65 9.48L44.65 9.48Q44.66 9.85 44.66 10.36L44.66 10.36ZM52.69 4.03L52.69 14.52L51.46 14.52L51.33 13.58L51.33 13.58Q50.91 14.62 49.15 14.62L49.15 14.62L49.15 14.62Q48.68 14.62 48.31 14.56L48.31 14.56L48.31 14.56Q47.93 14.50 47.66 14.35L47.66 14.35L47.66 14.35Q47.39 14.20 47.20 14.04L47.20 14.04L47.20 14.04Q47.01 13.88 46.88 13.57L46.88 13.57L46.88 13.57Q46.76 13.27 46.69 13.02L46.69 13.02L46.69 13.02Q46.61 12.77 46.58 12.33L46.58 12.33L46.58 12.33Q46.55 11.88 46.54 11.55L46.54 11.55L46.54 11.55Q46.53 11.22 46.53 10.65L46.53 10.65L46.53 10.65Q46.53 10.10 46.55 9.69L46.55 9.69L46.55 9.69Q46.57 9.29 46.62 8.89L46.62 8.89L46.62 8.89Q46.67 8.50 46.75 8.23L46.75 8.23L46.75 8.23Q46.84 7.96 46.98 7.70L46.98 7.70L46.98 7.70Q47.13 7.45 47.33 7.30L47.33 7.30L47.33 7.30Q47.53 7.14 47.81 7.02L47.81 7.02L47.81 7.02Q48.09 6.90 48.45 6.86L48.45 6.86L48.45 6.86Q48.82 6.81 49.27 6.81L49.27 6.81L49.27 6.81Q50.16 6.81 50.64 7.04L50.64 7.04L50.64 7.04Q51.13 7.28 51.34 7.79L51.34 7.79L51.34 4.14L52.69 4.03ZM51.34 12.78L51.34 12.78L51.34 8.79L51.34 8.79Q51.34 8.20 50.98 7.97L50.98 7.97L50.98 7.97Q50.61 7.75 49.59 7.75L49.59 7.75L49.59 7.75Q48.79 7.75 48.41 7.87L48.41 7.87L48.41 7.87Q48.10 7.96 47.99 8.43L47.99 8.43L47.99 8.43Q47.88 8.90 47.88 9.69L47.88 9.69L47.88 9.69Q47.88 10.85 47.92 12.93L47.92 12.93L47.92 12.93Q47.95 13.38 48.29 13.53L48.29 13.53L48.29 13.53Q48.62 13.69 49.59 13.69L49.59 13.69L49.59 13.69Q50.54 13.69 50.92 13.49L50.92 13.49L50.92 13.49Q51.30 13.30 51.34 12.78ZM60.38 9.18L60.38 9.18L59.27 9.37L59.12 8.42L59.12 8.42Q59.07 8.09 58.99 8.00L58.99 8.00L58.99 8.00Q58.82 7.79 58.01 7.77L58.01 7.77L58.01 7.77Q57.82 7.76 57.59 7.76L57.59 7.76L57.59 7.76Q56.66 7.76 56.37 7.86L56.37 7.86L56.37 7.86Q56.05 7.92 55.91 8.48L55.91 8.48L55.91 8.48Q55.77 9.05 55.77 9.87L55.77 9.87L55.77 11.05L55.77 11.05Q55.77 11.30 55.77 11.73L55.77 11.73L55.77 11.73Q55.77 12.29 55.77 12.52L55.77 12.52L55.77 12.52Q55.77 12.75 55.84 13.04L55.84 13.04L55.84 13.04Q55.90 13.33 55.98 13.40L55.98 13.40L55.98 13.40Q56.05 13.47 56.27 13.57L56.27 13.57L56.27 13.57Q56.49 13.67 56.74 13.67L56.74 13.67L56.74 13.67Q56.99 13.68 57.46 13.68L57.46 13.68L57.46 13.68Q57.83 13.68 58.10 13.65L58.10 13.65L58.10 13.65Q58.37 13.62 58.56 13.59L58.56 13.59L58.56 13.59Q58.75 13.55 58.87 13.46L58.87 13.46L58.87 13.46Q58.99 13.36 59.05 13.29L59.05 13.29L59.05 13.29Q59.12 13.21 59.15 13.05L59.15 13.05L59.15 13.05Q59.19 12.89 59.20 12.78L59.20 12.78L59.20 12.78Q59.21 12.66 59.22 12.42L59.22 12.42L59.22 12.42Q59.23 12.19 59.25 12.02L59.25 12.02L60.38 12.22L60.38 12.22Q60.33 12.75 60.28 13.07L60.28 13.07L60.28 13.07Q60.23 13.39 60.11 13.69L60.11 13.69L60.11 13.69Q59.99 13.99 59.81 14.15L59.81 14.15L59.81 14.15Q59.63 14.30 59.31 14.42L59.31 14.42L59.31 14.42Q58.99 14.55 58.57 14.58L58.57 14.58L58.57 14.58Q58.15 14.62 57.52 14.62L57.52 14.62L57.52 14.62Q57.07 14.62 56.71 14.59L56.71 14.59L56.71 14.59Q56.36 14.57 56.06 14.48L56.06 14.48L56.06 14.48Q55.77 14.40 55.55 14.32L55.55 14.32L55.55 14.32Q55.33 14.24 55.16 14.04L55.16 14.04L55.16 14.04Q55.00 13.84 54.88 13.70L54.88 13.70L54.88 13.70Q54.77 13.56 54.69 13.23L54.69 13.23L54.69 13.23Q54.62 12.91 54.58 12.69L54.58 12.69L54.58 12.69Q54.54 12.46 54.52 12.00L54.52 12.00L54.52 12.00Q54.50 11.54 54.49 11.22L54.49 11.22L54.49 11.22Q54.49 10.90 54.49 10.29L54.49 10.29L54.49 10.29Q54.49 9.74 54.51 9.34L54.51 9.34L54.51 9.34Q54.53 8.94 54.59 8.58L54.59 8.58L54.59 8.58Q54.65 8.21 54.75 7.97L54.75 7.97L54.75 7.97Q54.85 7.72 55.02 7.51L55.02 7.51L55.02 7.51Q55.19 7.30 55.40 7.18L55.40 7.18L55.40 7.18Q55.62 7.05 55.94 6.97L55.94 6.97L55.94 6.97Q56.25 6.88 56.63 6.84L56.63 6.84L56.63 6.84Q57.01 6.81 57.52 6.81L57.52 6.81L57.52 6.81Q58.17 6.81 58.61 6.87L58.61 6.87L58.61 6.87Q59.05 6.94 59.39 7.09L59.39 7.09L59.39 7.09Q59.73 7.24 59.93 7.52L59.93 7.52L59.93 7.52Q60.13 7.79 60.24 8.19L60.24 8.19L60.24 8.19Q60.35 8.59 60.38 9.18ZM68.09 7.02L68.09 14.53L66.84 14.53L66.72 13.56L66.72 13.56Q66.54 14.10 65.94 14.36L65.94 14.36L65.94 14.36Q65.34 14.62 64.48 14.62L64.48 14.62L64.48 14.62Q63.90 14.62 63.49 14.51L63.49 14.51L63.49 14.51Q63.09 14.39 62.82 14.17L62.82 14.17L62.82 14.17Q62.55 13.95 62.40 13.55L62.40 13.55L62.40 13.55Q62.25 13.15 62.20 12.65L62.20 12.65L62.20 12.65Q62.14 12.15 62.14 11.42L62.14 11.42L62.14 7.02L63.49 7.02L63.49 11.38L63.49 11.38Q63.49 11.53 63.48 11.78L63.48 11.78L63.48 11.78Q63.48 12.04 63.48 12.14L63.48 12.14L63.48 12.14Q63.48 12.50 63.49 12.71L63.49 12.71L63.49 12.71Q63.51 12.91 63.56 13.11L63.56 13.11L63.56 13.11Q63.62 13.31 63.72 13.40L63.72 13.40L63.72 13.40Q63.81 13.49 64.00 13.57L64.00 13.57L64.00 13.57Q64.20 13.64 64.45 13.67L64.45 13.67L64.45 13.67Q64.70 13.69 65.08 13.69L65.08 13.69L65.08 13.69Q65.52 13.69 65.83 13.62L65.83 13.62L65.83 13.62Q66.14 13.56 66.32 13.46L66.32 13.46L66.32 13.46Q66.49 13.36 66.59 13.19L66.59 13.19L66.59 13.19Q66.68 13.02 66.71 12.86L66.71 12.86L66.71 12.86Q66.73 12.69 66.73 12.45L66.73 12.45L66.73 12.45Q66.73 12.37 66.73 12.18L66.73 12.18L66.73 12.18Q66.73 12.00 66.73 11.90L66.73 11.90L66.73 7.02L68.09 7.02ZM73.53 6.85L73.53 6.85L73.47 7.99L73.47 7.99Q73.21 7.96 72.98 7.96L72.98 7.96L72.98 7.96Q72.50 7.96 72.19 8.05L72.19 8.05L72.19 8.05Q71.89 8.15 71.74 8.38L71.74 8.38L71.74 8.38Q71.59 8.61 71.53 8.91L71.53 8.91L71.53 8.91Q71.48 9.21 71.48 9.71L71.48 9.71L71.48 9.71Q71.48 9.99 71.51 10.53L71.51 10.53L71.51 10.53Q71.53 11.07 71.53 11.30L71.53 11.30L71.53 14.52L70.18 14.52L70.18 7.02L71.41 7.02L71.54 7.86L71.54 7.86Q71.76 7.37 72.19 7.10L72.19 7.10L72.19 7.10Q72.62 6.83 73.22 6.83L73.22 6.83L73.22 6.83Q73.37 6.83 73.53 6.85ZM79.25 7.02L80.64 7.02L78.16 14.52L76.69 14.52L74.33 7.02L75.60 7.02L77.43 13.35L79.25 7.02ZM87.82 10.66L87.82 10.66L87.82 10.66Q87.00 10.75 86.80 10.76L86.80 10.76L83.08 10.76L83.08 10.76Q83.08 11.75 83.13 12.93L83.13 12.93L83.13 12.93Q83.17 13.39 83.52 13.54L83.52 13.54L83.52 13.54Q83.88 13.69 84.92 13.69L84.92 13.69L84.92 13.69Q85.31 13.69 85.59 13.65L85.59 13.65L85.59 13.65Q85.87 13.62 86.05 13.55L86.05 13.55L86.05 13.55Q86.22 13.47 86.32 13.40L86.32 13.40L86.32 13.40Q86.42 13.32 86.47 13.17L86.47 13.17L86.47 13.17Q86.52 13.02 86.53 12.91L86.53 12.91L86.53 12.91Q86.54 12.80 86.56 12.59L86.56 12.59L86.56 12.59Q86.57 12.37 86.59 12.24L86.59 12.24L87.64 12.43L87.64 12.43Q87.62 12.91 87.57 13.24L87.57 13.24L87.57 13.24Q87.51 13.57 87.38 13.82L87.38 13.82L87.38 13.82Q87.25 14.08 87.08 14.22L87.08 14.22L87.08 14.22Q86.90 14.37 86.60 14.46L86.60 14.46L86.60 14.46Q86.30 14.56 85.93 14.59L85.93 14.59L85.93 14.59Q85.57 14.62 85.04 14.62L85.04 14.62L85.04 14.62Q84.36 14.62 83.85 14.54L83.85 14.54L83.85 14.54Q83.34 14.46 82.98 14.35L82.98 14.35L82.98 14.35Q82.63 14.23 82.39 13.97L82.39 13.97L82.39 13.97Q82.16 13.71 82.03 13.47L82.03 13.47L82.03 13.47Q81.89 13.23 81.83 12.76L81.83 12.76L81.83 12.76Q81.77 12.30 81.75 11.92L81.75 11.92L81.75 11.92Q81.74 11.54 81.74 10.87L81.74 10.87L81.74 10.87Q81.74 9.93 81.76 9.40L81.76 9.40L81.76 9.40Q81.79 8.87 81.89 8.34L81.89 8.34L81.89 8.34Q82.00 7.81 82.19 7.57L82.19 7.57L82.19 7.57Q82.37 7.33 82.74 7.13L82.74 7.13L82.74 7.13Q83.10 6.92 83.59 6.87L83.59 6.87L83.59 6.87Q84.08 6.81 84.84 6.81L84.84 6.81L84.84 6.81Q85.37 6.81 85.75 6.84L85.75 6.84L85.75 6.84Q86.13 6.87 86.45 6.97L86.45 6.97L86.45 6.97Q86.78 7.06 86.98 7.18L86.98 7.18L86.98 7.18Q87.19 7.31 87.35 7.55L87.35 7.55L87.35 7.55Q87.51 7.79 87.60 8.04L87.60 8.04L87.60 8.04Q87.68 8.30 87.74 8.72L87.74 8.72L87.74 8.72Q87.79 9.15 87.81 9.58L87.81 9.58L87.81 9.58Q87.82 10.01 87.82 10.66ZM83.08 10.04L83.08 10.04L86.47 10.04L86.47 10.04Q86.46 9.17 86.41 8.44L86.41 8.44L86.41 8.44Q86.38 8.03 86.05 7.89L86.05 7.89L86.05 7.89Q85.72 7.75 84.83 7.75L84.83 7.75L84.83 7.75Q83.86 7.75 83.60 7.85L83.60 7.85L83.60 7.85Q83.48 7.89 83.40 7.97L83.40 7.97L83.40 7.97Q83.31 8.06 83.25 8.22L83.25 8.22L83.25 8.22Q83.20 8.37 83.17 8.51L83.17 8.51L83.17 8.51Q83.14 8.65 83.12 8.89L83.12 8.89L83.12 8.89Q83.10 9.13 83.10 9.27L83.10 9.27L83.10 9.27Q83.09 9.40 83.09 9.67L83.09 9.67L83.09 9.67Q83.08 9.95 83.08 10.04Z"></path></g><defs data-v-423bf9ae=""><linearGradient data-v-423bf9ae="" gradientTransform="rotate(25)" id="b9d6b72d-5bbb-44a3-b552-c1352a4c9820" x1="0%" y1="0%" x2="100%" y2="0%"><stop data-v-423bf9ae="" offset="0%" style="stop-color: rgb(78, 26, 112); stop-opacity: 1;"></stop><stop data-v-423bf9ae="" offset="100%" style="stop-color: rgb(43, 76, 242); stop-opacity: 1;"></stop></linearGradient></defs><g data-v-423bf9ae="" id="ea539be5-9126-4b98-a8a6-33624727b62f" transform="matrix(1.20643446441337,0,0,1.20643446441337,-5.321723220668503,-14.621717855546791)" stroke="none" fill="url(#b9d6b72d-5bbb-44a3-b552-c1352a4c9820)"><path d="M5 20.1l7.4-7.4 26.1 26.1 7.5 7.4-7.5 7.4-26.1 26.1L5 72.3l26.1-26.1L5 20.1zm90 67.2V75.7H48.8v11.6H95z"></path></g><!----></svg>